<?xml version="1.0" standalone="no"?>
<!DOCTYPE svg PUBLIC "-//W3C//DTD SVG 20010904//EN"
 "http://www.w3.org/TR/2001/REC-SVG-20010904/DTD/svg10.dtd">
<svg version="1.0" xmlns="http://www.w3.org/2000/svg"
 width="1144.000000pt" height="1122.000000pt" viewBox="0 0 1144.000000 1122.000000"
 preserveAspectRatio="xMidYMid meet">

<g transform="translate(0.000000,1122.000000) scale(0.100000,-0.100000)"
fill="#000000" stroke="none">
<path d="M1724 10861 c-37 -9 -94 -42 -94 -54 0 -5 -9 -20 -20 -34 -11 -14
-20 -33 -20 -43 0 -25 -38 -70 -59 -70 -29 0 -44 -41 -32 -86 17 -63 -2 -152
-59 -266 -17 -33 -30 -66 -30 -74 0 -8 -4 -14 -10 -14 -5 0 -10 -13 -10 -28 0
-16 -7 -37 -15 -48 -31 -41 -6 -95 40 -86 30 5 73 53 81 90 3 15 12 41 19 57
19 43 35 106 35 136 0 15 6 32 14 38 7 6 16 38 20 71 7 58 8 60 61 97 61 43
70 63 49 104 -23 45 -17 56 42 89 65 38 83 70 59 106 -16 25 -22 26 -71 15z"/>
<path d="M3027 10843 c-11 -10 3 -73 25 -117 16 -32 20 -62 21 -180 2 -171
-10 -234 -57 -305 -36 -52 -46 -94 -26 -106 14 -9 68 16 74 35 3 8 15 29 26
45 10 17 26 42 35 58 9 15 20 27 26 27 5 0 9 19 8 43 -1 23 2 97 6 165 9 132
4 164 -42 260 -13 28 -30 52 -38 52 -7 0 -18 7 -25 15 -14 16 -23 19 -33 8z"/>
<path d="M2133 10782 c-12 -2 -26 -9 -31 -15 -20 -24 -62 -110 -62 -126 0 -10
-5 -22 -11 -28 -6 -6 -14 -62 -19 -124 -4 -63 -11 -123 -16 -133 -5 -13 -2
-23 10 -32 10 -7 15 -18 11 -24 -11 -17 56 -148 79 -154 49 -13 58 49 16 106
-28 38 -34 126 -17 222 8 43 13 86 10 95 -2 9 1 30 8 46 34 85 56 154 50 162
-3 4 -16 7 -28 5z"/>
<path d="M1103 10723 c-8 -3 -13 -25 -13 -59 0 -35 -7 -67 -20 -91 -11 -21
-20 -45 -20 -53 0 -8 -12 -37 -25 -65 -14 -27 -25 -55 -25 -62 0 -6 -11 -25
-25 -41 -14 -17 -25 -35 -25 -42 0 -7 -13 -29 -28 -49 -56 -73 -63 -88 -46
-102 12 -10 24 -9 63 8 28 12 61 18 79 15 27 -3 31 -9 37 -43 4 -22 2 -54 -5
-74 -8 -25 -9 -44 -2 -64 7 -21 6 -50 -5 -102 -8 -42 -15 -131 -15 -204 0 -71
-5 -136 -11 -143 -6 -7 -7 -40 -3 -80 4 -38 2 -98 -3 -133 -6 -35 -13 -131
-16 -213 -6 -151 -10 -169 -51 -219 -19 -22 -22 -33 -14 -47 6 -11 12 -45 14
-77 3 -32 11 -79 19 -105 8 -26 13 -49 10 -52 -3 -2 -5 -40 -4 -83 0 -43 -4
-121 -9 -173 -6 -52 -11 -121 -12 -152 -1 -32 -6 -58 -10 -58 -5 0 -3 -10 3
-22 8 -16 10 -75 6 -212 -11 -336 -27 -649 -38 -724 -8 -55 -7 -85 2 -122 11
-43 11 -52 -3 -67 -12 -13 -18 -45 -21 -108 -3 -49 -8 -142 -12 -205 -11 -197
-11 -374 -1 -388 6 -8 6 -16 0 -20 -5 -4 -10 -59 -11 -122 -2 -63 -6 -189 -9
-280 -4 -91 -8 -205 -9 -255 -3 -82 -11 -232 -20 -345 -2 -25 -6 -120 -10
-212 -4 -124 -10 -181 -24 -221 -11 -32 -15 -59 -10 -68 22 -41 12 -333 -20
-544 -6 -38 -11 -91 -11 -117 0 -37 -4 -48 -16 -48 -10 0 -12 -4 -7 -12 6 -11
11 -75 13 -163 0 -5 -2 -80 -5 -165 -2 -85 -5 -231 -5 -325 -1 -93 -6 -208
-11 -255 -6 -47 -12 -116 -13 -155 -2 -38 -9 -104 -15 -145 -7 -41 -12 -159
-12 -262 0 -108 -4 -190 -9 -193 -6 -4 -8 -80 -6 -190 2 -152 0 -196 -15 -257
-14 -55 -17 -93 -12 -157 4 -61 2 -82 -6 -77 -14 9 -14 0 -1 -24 6 -10 7 -21
3 -23 -5 -3 -7 -61 -6 -129 0 -67 -3 -162 -8 -211 l-9 -87 30 -30 c16 -16 44
-32 62 -35 18 -4 463 -4 988 -1 525 3 1041 5 1145 4 291 -3 733 2 1010 11 138
4 293 6 345 4 99 -4 522 -9 1110 -13 190 -1 353 1 363 6 10 4 226 8 480 10
254 1 586 7 737 13 151 5 660 16 1130 23 930 13 1003 14 1130 8 47 -2 231 -1
410 3 179 4 431 9 559 11 129 3 262 7 295 11 79 7 755 26 914 25 l122 -1 0 75
0 76 -73 0 c-40 0 -131 -4 -203 -9 -128 -10 -481 -19 -959 -26 -137 -2 -313
-7 -390 -10 -116 -6 -147 -4 -178 8 -20 9 -37 23 -37 31 0 8 -11 32 -25 52
-14 20 -25 45 -25 55 0 10 -4 21 -10 24 -5 3 -10 18 -10 33 0 15 -7 36 -15 46
-8 11 -15 28 -15 37 0 10 -6 30 -14 46 -8 15 -19 39 -25 53 -6 14 -22 51 -36
84 -14 32 -25 66 -25 75 0 10 -7 26 -15 37 -8 10 -15 28 -15 39 0 11 -11 37
-25 57 -14 20 -25 48 -25 62 0 14 -4 28 -10 31 -5 3 -10 13 -10 22 0 8 -12 43
-26 77 -14 33 -30 70 -35 81 -4 11 -11 36 -14 55 -4 19 -18 52 -31 72 -13 21
-24 46 -24 57 0 10 -7 24 -15 31 -8 7 -15 22 -15 35 0 31 -16 79 -54 167 -9
20 -16 40 -16 44 0 8 -14 38 -81 180 -22 45 -39 89 -39 99 0 19 -52 148 -106
263 -19 39 -34 88 -34 106 0 19 -4 38 -10 41 -5 3 -10 16 -10 28 0 13 -6 31
-14 42 -7 11 -26 61 -41 110 -15 50 -45 123 -66 164 -21 41 -48 104 -60 140
-11 36 -28 86 -37 111 -9 25 -17 52 -18 60 -2 19 -47 154 -67 200 -8 19 -23
60 -32 90 -10 30 -33 87 -50 125 -32 69 -76 187 -110 295 -9 30 -27 78 -40
105 -13 28 -37 91 -55 140 -17 50 -42 117 -56 150 -13 33 -24 65 -24 71 0 6
-7 17 -15 24 -8 7 -17 28 -21 49 -4 20 -13 48 -20 63 -8 15 -14 38 -14 51 0
13 -11 44 -24 68 -80 152 -122 246 -156 357 -13 39 -27 72 -32 72 -4 0 -8 13
-8 29 0 17 -4 33 -10 36 -5 3 -10 15 -10 26 0 11 -15 52 -34 92 -18 40 -42 97
-51 127 -10 30 -24 64 -31 75 -7 11 -22 54 -35 95 -12 41 -30 95 -41 119 -11
24 -22 60 -26 80 -3 20 -11 42 -19 49 -7 7 -13 24 -13 37 0 13 -4 27 -10 30
-5 3 -10 16 -10 27 0 19 -18 62 -72 173 -16 34 -56 138 -74 195 -3 9 -21 26
-39 39 -64 44 -120 13 -171 -94 -10 -22 -19 -42 -20 -45 -3 -19 -75 -205 -89
-233 -8 -16 -13 -33 -9 -38 3 -5 0 -9 -5 -9 -6 0 -10 -3 -9 -7 5 -20 -25 -81
-42 -86 -13 -3 -17 -11 -14 -24 3 -10 -2 -32 -10 -48 -9 -17 -16 -39 -16 -50
0 -12 -4 -25 -9 -30 -4 -6 -21 -48 -37 -95 -15 -47 -39 -102 -51 -123 -13 -21
-21 -42 -18 -46 2 -5 -4 -20 -15 -34 -11 -14 -20 -29 -20 -34 0 -4 -11 -30
-25 -57 -14 -27 -42 -95 -62 -150 -20 -56 -40 -102 -45 -104 -4 -2 -8 -14 -8
-27 0 -13 -18 -58 -40 -101 -22 -43 -40 -86 -40 -95 0 -9 -9 -28 -20 -42 -11
-14 -18 -32 -14 -40 3 -8 -2 -17 -10 -20 -9 -4 -13 -13 -10 -22 5 -11 0 -18
-13 -21 -18 -5 -25 -24 -49 -149 -4 -16 -12 -37 -19 -45 -6 -8 -18 -37 -25
-65 -8 -27 -20 -61 -27 -75 -7 -14 -13 -33 -13 -42 0 -10 -8 -22 -18 -27 -11
-6 -22 -32 -31 -72 -7 -35 -24 -86 -38 -113 -14 -28 -29 -64 -34 -81 -15 -59
-33 -107 -62 -160 -8 -16 -24 -50 -35 -75 -11 -25 -31 -72 -45 -105 -14 -33
-29 -71 -32 -85 -6 -24 -19 -59 -35 -90 -4 -9 -11 -30 -14 -47 -4 -19 -15 -35
-27 -38 -10 -4 -20 -12 -21 -18 -3 -25 -4 -33 -12 -54 -4 -13 -11 -23 -15 -23
-5 0 -11 -27 -15 -59 -4 -33 -15 -70 -24 -83 -10 -12 -24 -36 -32 -53 -8 -16
-23 -43 -33 -58 -10 -15 -16 -34 -14 -42 3 -7 -1 -16 -9 -19 -8 -3 -14 -11
-14 -17 0 -7 -13 -41 -30 -76 -16 -34 -30 -76 -30 -92 0 -17 -4 -32 -9 -36 -5
-3 -13 -30 -17 -61 -3 -30 -12 -61 -19 -68 -7 -7 -19 -33 -26 -57 -7 -24 -16
-48 -21 -53 -4 -6 -8 -18 -8 -28 0 -10 -4 -18 -10 -18 -5 0 -13 -12 -16 -27
-4 -16 -24 -65 -46 -110 -21 -45 -38 -88 -38 -95 0 -7 -9 -26 -20 -43 -11 -16
-20 -39 -20 -50 0 -28 -22 -83 -48 -125 -12 -19 -22 -43 -22 -53 0 -10 -7 -25
-15 -33 -8 -9 -15 -29 -15 -45 0 -16 -7 -46 -16 -67 -10 -20 -16 -45 -15 -55
1 -9 -2 -17 -6 -17 -5 0 -17 -17 -27 -37 -51 -108 -65 -141 -71 -168 -7 -35
-41 -109 -66 -145 -9 -14 -21 -44 -24 -65 -4 -22 -11 -44 -15 -50 -4 -5 -10
-23 -13 -40 -13 -68 -21 -91 -41 -120 -19 -27 -54 -110 -60 -143 -1 -7 -8 -18
-14 -24 -7 -7 -12 -20 -12 -29 0 -10 -4 -21 -10 -24 -5 -3 -10 -16 -10 -28 0
-12 -7 -35 -15 -51 -8 -15 -15 -35 -15 -42 0 -8 -4 -14 -10 -14 -5 0 -10 -7
-10 -15 0 -8 -11 -36 -24 -62 -13 -27 -34 -70 -46 -98 -13 -27 -29 -62 -37
-77 -7 -14 -13 -37 -13 -50 0 -28 -39 -61 -84 -72 -52 -13 -451 -17 -482 -5
-31 11 -84 12 -819 9 -264 -1 -651 -1 -859 -1 l-379 1 -34 26 c-32 24 -33 27
-19 43 19 21 21 83 4 110 -9 14 -8 29 4 67 8 27 21 76 28 109 6 33 20 76 31
95 39 75 99 198 99 204 0 13 -28 36 -42 36 -8 0 -23 -7 -34 -15 -26 -20 -54
-18 -84 4 l-24 19 4 444 c2 243 5 470 7 503 2 33 5 128 7 210 2 83 7 160 11
172 6 19 4 23 -14 23 -28 0 -29 40 0 47 12 4 18 11 15 20 -16 42 -17 64 -2 85
9 12 16 32 16 43 0 29 -23 75 -37 75 -6 0 -20 3 -30 7 -16 6 -17 5 -3 -11 12
-16 12 -19 -3 -28 -10 -5 -15 -14 -12 -19 4 -5 11 -7 16 -4 5 4 9 -1 9 -9 0
-9 -3 -16 -7 -16 -12 0 -12 -54 -1 -67 7 -9 7 -13 -1 -13 -6 0 -11 -16 -10
-37 0 -31 2 -34 9 -18 8 18 9 17 9 -7 1 -14 -5 -28 -12 -31 -9 -3 -9 -9 1 -26
16 -27 15 -46 -1 -60 -13 -10 -19 -72 -21 -209 -1 -28 -4 -52 -7 -52 -3 0 -6
-26 -7 -58 -2 -81 -12 -204 -18 -222 -9 -24 -13 -621 -5 -665 4 -22 6 -57 3
-78 -5 -45 -29 -54 -104 -39 -29 5 -58 8 -65 5 -15 -6 -17 -45 -4 -71 35 -72
43 -94 46 -133 3 -24 14 -71 26 -104 46 -131 72 -258 62 -307 -8 -40 -75 -73
-119 -59 -45 14 -103 21 -109 12 -6 -10 -158 -7 -174 3 -7 4 -18 3 -24 -3 -11
-8 -202 -13 -362 -9 -16 1 -70 0 -120 -1 -49 -1 -146 1 -214 4 -137 6 -166 16
-174 62 -12 61 11 859 26 943 6 36 12 170 14 298 1 128 7 257 13 287 17 82 21
159 21 390 -1 116 4 257 9 315 6 58 13 197 16 310 3 113 12 252 20 310 15 109
17 136 28 380 4 80 9 152 11 160 5 17 16 244 19 385 1 50 7 149 14 220 7 72
15 276 18 455 3 179 7 345 9 370 7 71 17 337 16 430 0 47 4 99 9 115 5 17 12
98 14 182 3 84 10 161 16 173 19 35 76 51 175 50 148 -2 749 11 758 17 5 3 68
5 140 4 105 -1 133 -4 140 -16 4 -8 13 -15 20 -15 13 0 38 -46 29 -55 -3 -3
-14 -37 -23 -75 -22 -84 -43 -133 -81 -181 -15 -20 -28 -44 -28 -53 0 -9 -9
-21 -20 -28 -31 -19 -28 -81 4 -96 19 -9 27 -8 36 4 15 17 49 18 72 1 13 -10
17 -31 18 -88 1 -41 0 -78 -1 -84 -1 -5 -3 -35 -4 -65 -2 -76 -14 -301 -20
-385 -3 -38 -8 -146 -10 -239 -3 -93 -8 -173 -11 -177 -8 -13 -8 -225 1 -238
4 -7 -1 -21 -10 -31 -12 -14 -15 -24 -8 -32 5 -7 8 -38 6 -68 -2 -30 -5 -158
-6 -283 -1 -188 1 -230 13 -237 8 -5 21 -5 28 -1 30 17 42 83 41 231 0 80 4
157 9 171 13 33 21 242 27 691 2 191 8 356 13 365 6 14 7 158 2 228 -1 6 1 27
3 47 3 20 8 65 12 98 7 61 8 62 51 81 24 11 56 18 71 17 26 -3 28 0 31 37 1
25 -5 53 -16 75 -76 139 -93 185 -99 261 -5 67 -3 79 13 96 42 43 70 46 347
39 241 -7 320 -7 572 1 80 2 297 8 598 15 91 3 100 5 119 28 l20 24 -25 22
c-37 32 -106 35 -577 28 -384 -6 -709 -8 -1000 -6 -58 1 -152 -3 -210 -9 -66
-6 -120 -6 -145 0 -22 5 -67 7 -100 4 -66 -6 -141 -5 -608 2 -189 3 -326 9
-337 15 -34 18 -44 78 -31 172 11 79 18 222 27 533 7 258 12 409 17 490 3 44
8 166 11 270 3 105 8 221 11 258 2 38 5 160 5 270 1 111 6 207 11 213 5 6 6
30 1 55 -5 24 -5 60 0 79 4 19 10 105 13 191 3 85 9 170 14 187 5 17 8 61 5
97 -5 77 5 86 92 87 42 1 57 5 64 19 16 29 11 84 -8 110 -10 13 -29 45 -41 71
-12 25 -28 49 -36 51 -19 8 -47 113 -46 175 0 38 -4 55 -14 59 -8 3 -15 13
-15 23 0 22 -10 29 -27 23z m6157 -4020 c0 -13 5 -32 12 -42 6 -10 8 -26 3
-37 -16 -40 -14 -87 7 -130 25 -55 28 -57 57 -35 19 15 23 28 27 90 4 85 7 91
42 91 32 0 66 -45 77 -100 3 -19 15 -53 25 -75 23 -52 39 -100 52 -152 5 -23
16 -47 24 -54 8 -6 14 -20 14 -30 0 -10 5 -21 10 -24 6 -3 10 -15 10 -25 0
-31 28 -109 69 -195 21 -44 45 -100 53 -125 28 -84 71 -205 81 -230 6 -14 10
-29 8 -34 -1 -4 5 -13 14 -20 9 -6 26 -49 39 -96 28 -101 76 -232 115 -315 31
-67 46 -107 66 -179 7 -26 17 -51 22 -55 16 -10 44 -72 58 -126 21 -80 36
-120 70 -185 32 -63 35 -70 35 -89 0 -10 6 -24 14 -31 8 -6 12 -18 9 -26 -3
-8 1 -20 9 -27 16 -13 41 -90 58 -177 6 -30 17 -68 25 -84 8 -15 15 -33 15
-38 0 -10 20 -59 46 -113 8 -17 23 -64 34 -106 16 -65 52 -160 80 -210 5 -9
12 -33 15 -52 4 -20 13 -41 21 -48 8 -6 14 -20 14 -30 0 -10 9 -34 19 -52 10
-19 29 -72 41 -118 12 -46 32 -104 45 -129 14 -25 35 -76 47 -115 13 -38 28
-77 33 -85 20 -31 56 -115 64 -149 25 -100 51 -176 68 -200 11 -14 28 -44 37
-66 10 -22 22 -48 27 -57 5 -10 9 -28 9 -40 0 -13 11 -43 25 -67 14 -23 25
-54 25 -66 0 -13 5 -27 10 -30 6 -3 10 -17 10 -30 0 -14 9 -39 20 -57 11 -18
20 -41 20 -50 0 -9 6 -21 13 -25 25 -15 107 -220 107 -268 0 -11 9 -31 20 -45
11 -14 20 -33 20 -43 0 -11 6 -33 14 -50 7 -18 19 -52 26 -77 8 -25 20 -52 27
-61 7 -8 13 -23 13 -31 0 -9 7 -21 15 -28 8 -7 17 -28 20 -49 4 -20 12 -47 19
-61 8 -14 16 -42 20 -62 4 -21 11 -38 16 -38 6 0 10 -8 10 -19 0 -13 -10 -21
-32 -25 -61 -13 -322 -25 -552 -26 -126 0 -231 -2 -235 -4 -5 -4 -1058 -21
-1216 -20 -76 0 -112 10 -124 32 -14 26 -12 253 4 413 7 74 -4 93 -50 87 -42
-5 -53 -53 -53 -236 0 -164 -6 -242 -22 -272 -8 -15 -30 -19 -157 -24 -256
-11 -1321 -26 -1478 -20 -89 3 -176 1 -215 -6 -75 -12 -189 -15 -222 -5 -64
20 -74 66 -30 136 16 24 34 67 42 94 19 71 69 197 86 216 8 8 14 22 14 30 0
21 39 130 56 156 7 12 27 62 44 112 32 96 87 211 107 224 7 4 13 17 13 28 0
11 14 49 30 86 17 36 30 74 30 85 0 10 7 35 16 56 9 20 35 87 56 147 70 194
95 255 112 275 8 8 19 40 25 70 12 55 16 65 63 170 14 30 36 82 49 115 12 33
29 67 36 76 7 8 16 31 19 50 4 19 13 46 20 61 8 15 14 37 14 49 0 11 11 43 25
71 14 27 25 57 25 66 0 9 13 36 29 60 16 23 34 66 40 94 6 28 17 62 25 77 36
71 66 143 66 161 0 10 11 36 25 56 14 20 25 42 25 49 0 6 19 49 43 96 24 46
54 113 67 149 13 36 29 76 36 90 7 14 25 61 40 105 15 44 34 87 41 96 8 9 19
34 24 55 6 21 22 61 35 90 13 29 24 55 24 58 0 3 11 30 25 60 14 30 25 61 25
70 0 8 5 18 10 21 6 3 10 16 10 27 0 12 6 29 14 37 7 9 34 72 60 141 26 69 55
143 66 165 10 22 24 58 30 80 7 22 18 51 26 65 19 38 44 112 44 133 0 10 7 20
15 23 8 4 15 14 15 24 0 11 4 21 9 25 5 3 17 29 27 58 9 28 20 57 24 62 4 6
10 27 14 48 4 20 11 37 16 37 4 0 15 30 24 68 15 64 50 159 71 192 5 8 19 42
31 75 61 170 136 324 187 386 30 35 33 36 49 22 10 -9 18 -27 18 -40z"/>
<path d="M7274 6196 c-18 -13 -21 -28 -24 -143 -3 -70 -5 -195 -5 -276 l0
-149 28 -24 c33 -28 53 -30 65 -6 10 18 23 269 23 460 1 94 -2 117 -17 133
-20 23 -42 24 -70 5z"/>
<path d="M7256 5343 c-30 -29 -30 -38 -28 -308 1 -194 9 -285 25 -285 7 0 22
-3 34 -6 33 -9 43 23 48 159 3 67 7 179 10 249 5 114 4 132 -14 166 -26 51
-43 57 -75 25z"/>
<path d="M7275 4542 c-32 -6 -45 -32 -45 -92 0 -31 -7 -79 -15 -106 -13 -43
-15 -224 -6 -425 1 -26 33 -49 69 -49 24 0 38 54 31 120 -3 30 -1 82 4 115 4
33 9 140 10 237 2 189 -3 210 -48 200z"/>
<path d="M7234 3572 c-25 -16 -38 -191 -23 -307 6 -46 5 -65 -6 -82 -18 -27
-12 -152 7 -165 7 -4 25 -8 40 -8 42 0 49 38 47 265 -1 211 -8 282 -30 296
-17 11 -21 11 -35 1z"/>
<path d="M7175 2679 c-4 -5 1 -9 9 -9 19 0 20 -4 4 -30 -10 -16 -10 -24 0 -41
9 -13 10 -25 4 -32 -6 -7 -10 -50 -11 -95 -1 -46 -6 -92 -11 -102 -15 -28 -12
-76 6 -91 9 -7 13 -21 10 -32 -9 -34 11 -57 48 -57 19 0 38 6 45 13 7 9 9 68
6 184 -3 102 -1 182 5 197 12 31 -14 95 -39 97 -9 1 -28 3 -43 5 -15 1 -30 -1
-33 -7z"/>
<path d="M2493 10637 c-22 -7 -35 -19 -42 -40 -17 -47 -14 -53 39 -87 53 -34
58 -46 36 -88 -13 -24 -76 -72 -76 -57 0 3 -13 -1 -30 -10 -16 -9 -30 -23 -30
-31 0 -11 -6 -14 -16 -10 -13 5 -14 1 -9 -27 4 -17 12 -38 17 -44 14 -18 70
-16 119 4 39 15 45 15 96 -2 54 -19 56 -19 91 1 32 17 69 64 71 89 1 10 -20
24 -69 45 -14 6 -31 19 -38 30 -22 35 -4 67 68 119 66 48 85 76 70 101 -10 16
-249 21 -297 7z"/>
<path d="M1335 10210 c3 -5 8 -10 11 -10 2 0 4 5 4 10 0 6 -5 10 -11 10 -5 0
-7 -4 -4 -10z"/>
<path d="M4501 7280 c-31 -7 -45 -31 -38 -62 11 -42 65 -48 422 -47 176 1 347
1 380 0 34 0 85 3 114 8 29 5 69 5 88 0 20 -4 214 -5 432 -2 218 4 412 5 431
4 19 -1 159 -1 310 -1 252 0 277 1 300 18 14 11 26 30 28 45 6 48 -10 49 -730
41 -365 -4 -683 -7 -708 -6 -192 5 -1011 7 -1029 2z"/>
<path d="M2110 4473 c-46 -9 -53 -51 -19 -118 l21 -41 -21 -35 c-12 -19 -24
-42 -27 -51 -4 -10 -10 -18 -15 -18 -5 0 -6 -7 -2 -15 3 -9 -1 -23 -10 -33 -8
-9 -19 -45 -25 -79 -6 -33 -20 -79 -31 -101 -11 -22 -17 -43 -13 -47 4 -3 0
-12 -9 -18 -10 -7 -19 -35 -23 -70 -9 -66 8 -97 50 -97 34 0 51 23 78 108 35
110 54 152 84 184 31 32 62 36 85 10 21 -23 21 -50 1 -92 -26 -51 -33 -95 -22
-144 7 -34 16 -47 39 -59 47 -22 77 -10 151 65 68 68 81 94 53 104 -8 4 -15
10 -15 14 0 5 -14 22 -31 39 -21 22 -29 37 -24 49 12 31 18 110 11 147 -6 29
-14 39 -41 51 -19 8 -49 14 -67 14 -44 0 -63 13 -53 36 4 11 7 31 6 47 -2 15
3 43 9 62 6 19 9 49 5 65 -6 29 -8 30 -63 29 -31 -1 -68 -4 -82 -6z"/>
<path d="M9502 967 c-32 -11 -33 -13 -26 -52 4 -23 17 -50 30 -62 13 -12 24
-28 24 -36 0 -28 -31 -87 -45 -87 -17 0 -20 -16 -5 -25 6 -3 10 -15 10 -26 0
-10 -4 -19 -10 -19 -5 0 -10 -19 -10 -43 0 -24 -7 -52 -15 -63 -8 -10 -15 -28
-15 -38 0 -10 -7 -24 -16 -31 -25 -18 -21 -151 6 -180 11 -12 20 -27 20 -34 0
-18 79 -51 123 -51 79 0 141 27 201 87 31 31 56 62 56 68 0 7 8 19 19 29 14
12 20 37 25 101 11 146 -35 226 -137 238 -26 4 -52 9 -57 12 -12 7 -13 48 -2
59 4 4 14 38 23 74 14 61 14 68 0 76 -23 14 -161 16 -199 3z m213 -457 c-11
-78 -90 -154 -134 -130 -51 27 10 198 75 211 45 9 68 -22 59 -81z"/>
<path d="M4684 673 c-7 -8 -18 -12 -23 -9 -5 4 -22 -7 -38 -22 -15 -16 -38
-34 -51 -41 -12 -6 -22 -20 -22 -30 0 -10 -6 -24 -14 -30 -8 -7 -17 -28 -21
-49 -4 -20 -17 -58 -29 -84 -26 -54 -23 -123 7 -153 10 -9 24 -30 32 -46 9
-15 23 -33 33 -38 9 -5 85 -8 167 -7 l150 2 31 29 c37 35 74 104 74 139 0 13
-15 43 -34 65 -31 37 -34 44 -24 74 5 17 16 55 24 82 9 28 18 57 21 66 7 24
-35 49 -83 49 -22 0 -44 3 -47 6 -14 14 -138 11 -153 -3z m82 -137 c25 -19 24
-108 -2 -137 -9 -10 -13 -19 -8 -19 5 0 2 -6 -7 -13 -9 -7 -21 -22 -28 -34
-25 -49 -107 -19 -109 39 -1 45 57 166 83 171 38 8 51 7 71 -7z"/>
</g>
</svg>
